<svg xmlns="http://www.w3.org/2000/svg" viewBox="0 0 36 45" x="0px" y="0px"><g><path fill='#bd2020' d="M30.56771,10.1737a2.29794,2.29794,0,0,0-.59619-.60443l-.03058-.01306a1.50054,1.50054,0,0,0-.19483-.10749l-.14245-.061a1.2141,1.2141,0,0,1-.20935-.10169L29.36373,9.273c-.08722-.04937-.2981-.17578-.61646-.36023l-.03637-.02758c-.09742-.05372-.47107-.24982-1.10645-.59406l-.02032-.00873c-.29664-.15106-.522-.27154-.72559-.3587l-.01007-.00433a11.917,11.917,0,0,0-1.3681-.48932c-.21222-.06671-.4245-.13349-.64112-.19013l-.02038-.00873c-.71961-.17547-1.19355-.30609-1.42035-.36712a1.64435,1.64435,0,0,0-.9289,3.15478c.25733.074.77631.21192,1.52649.40052.17157.04937.35327.103.52478.15234l.0102.00439a6.99582,6.99582,0,0,1,.74.26862A28.226,28.226,0,0,0,14.2986,15.82958q-4.98934,3.55418-9.51776,10.87a1.64546,1.64546,0,0,0,2.80042,1.72851q4.1899-6.75027,8.63586-9.93487l.029-.01166a25.12918,25.12918,0,0,1,9.44654-4.37372,39.85988,39.85988,0,0,0-2.69013,4.31549,1.64293,1.64293,0,1,0,2.91657,1.51343,45.70776,45.70776,0,0,1,3.48919-5.39447l.03632-.0567a13.42389,13.42389,0,0,1,1.01251-1.24036l.03638-.05676c.09729-.11481.16272-.18317.20489-.22534a1.58975,1.58975,0,0,0-.13067-2.78943Z"/></g></svg>