<svg width="17" height="16" viewBox="0 0 17 16" fill="none" xmlns="http://www.w3.org/2000/svg">
<g clip-path="url(#clip0_50_52)">
<path fill-rule="evenodd" clip-rule="evenodd" d="M14.0816 3.44976L8.24273 9.2886C8.04753 9.4839 7.73093 9.4839 7.53563 9.2886L6.82853 8.5815C6.63333 8.3862 6.63333 8.0696 6.82853 7.8744L12.6674 2.03552H9.92473C9.64863 2.03552 9.42473 1.81167 9.42473 1.53552V0.535522C9.42473 0.259382 9.64863 0.0355225 9.92473 0.0355225H15.5816C15.8577 0.0355225 16.0816 0.259382 16.0816 0.535522V6.1924C16.0816 6.4685 15.8577 6.6924 15.5816 6.6924H14.5816C14.3054 6.6924 14.0816 6.4685 14.0816 6.1924V3.44976Z" fill="white"/>
<path fill-rule="evenodd" clip-rule="evenodd" d="M0 0.5C0 0.22386 0.22386 0 0.5 0H7.5C7.7761 0 8 0.22386 8 0.5V1.5C8 1.77614 7.7761 2 7.5 2H2V14H14V8.5C14 8.2239 14.2239 8 14.5 8H15.5C15.7761 8 16 8.2239 16 8.5V15.5C16 15.7761 15.7761 16 15.5 16H0.5C0.22386 16 0 15.7761 0 15.5V0.5Z" fill="white"/>
</g>
<defs>
<clipPath id="clip0_50_52">
<rect width="16.0815" height="16" fill="white"/>
</clipPath>
</defs>
</svg>
