<svg width="157" height="18" viewBox="0 0 157 18" fill="none" xmlns="http://www.w3.org/2000/svg">
<path d="M11.144 17V0.199999H14.744V17H11.144ZM0.608 17V0.199999H4.208V17H0.608ZM3.752 9.872V6.968H11.72V9.872H3.752ZM19.6318 17V0.199999H23.2318V17H19.6318ZM28.1321 17V0.199999H39.3881V3.104H31.7321V7.064H38.6681V9.848H31.7321V14.096H39.3881V17H28.1321ZM43.9214 17V0.199999H47.5214V14.216H54.7694V17H43.9214ZM59.2421 17V0.199999H62.8421V6.56L68.6501 0.199999H73.0661L66.8981 6.848L73.2821 17H68.8661L64.3301 9.632L62.8421 11.24V17H59.2421ZM77.0939 17V0.199999H88.3499V3.104H80.6939V7.064H87.6299V9.848H80.6939V14.096H88.3499V17H77.0939ZM93.1473 11.432V8.432H103.467V11.432H93.1473ZM113.354 17.288C112.234 17.288 111.25 17.08 110.402 16.664C109.554 16.232 108.89 15.6 108.41 14.768C107.946 13.936 107.714 12.92 107.714 11.72H111.29C111.29 12.216 111.362 12.64 111.506 12.992C111.666 13.344 111.89 13.616 112.178 13.808C112.466 13.984 112.826 14.072 113.258 14.072C113.674 14.072 114.018 13.992 114.29 13.832C114.562 13.656 114.762 13.408 114.89 13.088C115.018 12.768 115.082 12.384 115.082 11.936V0.199999H118.682V11.936C118.682 13.68 118.194 15.008 117.218 15.92C116.258 16.832 114.97 17.288 113.354 17.288ZM121.717 17L127.837 0.199999H131.965L138.085 17H134.269L129.877 4.256L125.485 17H121.717ZM124.381 13.328L125.341 10.544H134.149L135.085 13.328H124.381ZM141.845 17V0.199999H145.445L152.813 11.24V0.199999H156.413V17H152.813L145.445 6.008V17H141.845Z" fill="#040606"/>
</svg>
