<svg width="293" height="46" viewBox="0 0 293 46" fill="none" xmlns="http://www.w3.org/2000/svg">
<path d="M1.48 35.888L0.58 33.98C1.172 33.748 1.756 33.396 2.332 32.924C2.908 32.46 3.32 31.78 3.568 30.884C3.752 30.228 3.86 29.412 3.892 28.436C3.932 27.46 3.952 26.272 3.952 24.872V14.168H7.72V24.824C7.72 25.984 7.724 27.08 7.732 28.112C7.748 29.144 7.672 30.084 7.504 30.932C7.352 31.756 7.048 32.476 6.592 33.092C6.144 33.708 5.616 34.22 5.008 34.628C4.408 35.036 3.796 35.344 3.172 35.552C2.548 35.76 1.984 35.872 1.48 35.888ZM18.7354 32.192C17.0234 32.224 15.5514 31.86 14.3194 31.1C13.0874 30.332 12.1514 29.252 11.5114 27.86C10.8714 26.46 10.5674 24.832 10.5994 22.976C10.6394 20.92 11.0314 19.236 11.7754 17.924C12.5194 16.604 13.5234 15.624 14.7874 14.984C16.0514 14.344 17.4834 14.008 19.0834 13.976C20.7234 13.944 22.1394 14.3 23.3314 15.044C24.5314 15.78 25.4474 16.836 26.0794 18.212C26.7194 19.58 27.0194 21.196 26.9794 23.06C26.9394 25.116 26.5634 26.816 25.8514 28.16C25.1394 29.496 24.1714 30.496 22.9474 31.16C21.7234 31.816 20.3194 32.16 18.7354 32.192ZM18.8074 29.432C20.1434 29.432 21.2034 28.908 21.9874 27.86C22.7714 26.812 23.1634 25.172 23.1634 22.94C23.1634 21.772 23.0074 20.724 22.6954 19.796C22.3914 18.868 21.9314 18.136 21.3154 17.6C20.6994 17.056 19.9274 16.784 18.9994 16.784C18.1674 16.784 17.4034 16.992 16.7074 17.408C16.0194 17.824 15.4674 18.496 15.0514 19.424C14.6354 20.352 14.4274 21.584 14.4274 23.12C14.4274 24.296 14.5914 25.36 14.9194 26.312C15.2474 27.264 15.7354 28.024 16.3834 28.592C17.0314 29.152 17.8394 29.432 18.8074 29.432ZM29.5596 32V14.168H31.0836C31.8676 14.168 32.6476 14.136 33.4236 14.072C34.1996 14.008 35.0116 13.976 35.8596 13.976C37.2356 13.976 38.4156 14.18 39.3996 14.588C40.3836 14.988 41.1396 15.636 41.6676 16.532C42.2036 17.428 42.4716 18.608 42.4716 20.072C42.4716 22.112 41.8596 23.692 40.6356 24.812C39.4196 25.932 37.6556 26.492 35.3436 26.492C34.8396 26.492 34.4276 26.488 34.1076 26.48C33.7956 26.472 33.5356 26.468 33.3276 26.468V32H29.5596ZM33.3276 23.66C33.6316 23.7 33.9436 23.728 34.2636 23.744C34.5916 23.76 34.9276 23.768 35.2716 23.768C35.9116 23.768 36.4956 23.66 37.0236 23.444C37.5596 23.228 37.9836 22.852 38.2956 22.316C38.6156 21.78 38.7756 21.028 38.7756 20.06C38.7756 18.924 38.4796 18.056 37.8876 17.456C37.2956 16.856 36.4036 16.576 35.2116 16.616C34.9076 16.624 34.5876 16.64 34.2516 16.664C33.9156 16.688 33.6076 16.728 33.3276 16.784V23.66ZM48.5449 32V14.168H59.4289V17H52.2889V21.476H57.7009V24.248H52.2889V29.108H60.1849V32H48.5449ZM62.8602 32V14.168H66.6522V32H62.8602ZM70.4599 32V14.168H74.1439V22.28L80.3479 14.168H84.5119L77.6359 22.868L76.8919 23.492L73.6039 27.332L74.1439 24.836V32H70.4599ZM79.8199 30.62C79.5079 30.044 79.1759 29.464 78.8239 28.88C78.4719 28.288 78.1119 27.704 77.7439 27.128C77.3839 26.552 77.0279 25.996 76.6759 25.46C76.3239 24.924 75.9919 24.416 75.6799 23.936L77.0119 22.664L78.1639 21.356C78.3639 21.628 78.6359 22.032 78.9799 22.568C79.3319 23.096 79.7239 23.704 80.1559 24.392C80.5959 25.08 81.0479 25.796 81.5119 26.54C81.9759 27.284 82.4239 28.016 82.8559 28.736C83.2879 29.456 83.6759 30.112 84.0199 30.704C84.1079 30.848 84.1919 30.992 84.2719 31.136C84.3599 31.28 84.4439 31.424 84.5239 31.568C84.6119 31.712 84.6999 31.856 84.7879 32H80.5519C80.4479 31.84 80.3479 31.664 80.2519 31.472C80.1639 31.272 80.0199 30.988 79.8199 30.62ZM86.644 32V14.168H97.528V17H90.388V21.476H95.8V24.248H90.388V29.108H98.284V32H86.644ZM100.695 32V14.168H104.415V28.988H110.859V32H100.695ZM113.202 32V14.144L115.014 14.168C115.414 14.168 115.822 14.156 116.238 14.132C116.654 14.1 117.102 14.072 117.582 14.048C118.062 14.016 118.602 14 119.202 14C120.73 14 121.97 14.184 122.922 14.552C123.882 14.912 124.582 15.424 125.022 16.088C125.462 16.752 125.682 17.536 125.682 18.44C125.682 19.04 125.582 19.62 125.382 20.18C125.19 20.732 124.894 21.212 124.494 21.62C124.094 22.028 123.59 22.316 122.982 22.484C123.686 22.556 124.318 22.78 124.878 23.156C125.438 23.524 125.882 24.008 126.21 24.608C126.538 25.2 126.702 25.868 126.702 26.612C126.702 27.7 126.482 28.66 126.042 29.492C125.61 30.324 124.862 30.98 123.798 31.46C122.742 31.932 121.27 32.168 119.382 32.168C118.614 32.168 117.822 32.144 117.006 32.096C116.198 32.056 115.558 32.024 115.086 32H113.202ZM116.934 21.572C117.078 21.596 117.25 21.616 117.45 21.632C117.65 21.64 117.858 21.648 118.074 21.656C118.298 21.656 118.506 21.656 118.698 21.656C118.898 21.656 119.074 21.656 119.226 21.656C120.122 21.656 120.818 21.436 121.314 20.996C121.818 20.556 122.07 19.836 122.07 18.836C122.07 18.02 121.782 17.436 121.206 17.084C120.638 16.732 119.814 16.556 118.734 16.556C118.614 16.556 118.426 16.564 118.17 16.58C117.914 16.588 117.666 16.604 117.426 16.628C117.186 16.644 117.022 16.672 116.934 16.712V21.572ZM116.934 29.36C117.046 29.432 117.246 29.488 117.534 29.528C117.83 29.568 118.146 29.596 118.482 29.612C118.818 29.628 119.118 29.636 119.382 29.636C120.518 29.636 121.386 29.42 121.986 28.988C122.586 28.548 122.886 27.804 122.886 26.756C122.886 25.852 122.602 25.18 122.034 24.74C121.474 24.3 120.574 24.08 119.334 24.08C119.158 24.08 118.954 24.08 118.722 24.08C118.498 24.08 118.266 24.084 118.026 24.092C117.794 24.1 117.582 24.108 117.39 24.116C117.198 24.124 117.046 24.14 116.934 24.164V29.36ZM136.384 32.192C134.672 32.224 133.2 31.86 131.968 31.1C130.736 30.332 129.8 29.252 129.16 27.86C128.52 26.46 128.216 24.832 128.248 22.976C128.288 20.92 128.68 19.236 129.424 17.924C130.168 16.604 131.172 15.624 132.436 14.984C133.7 14.344 135.132 14.008 136.732 13.976C138.372 13.944 139.788 14.3 140.98 15.044C142.18 15.78 143.096 16.836 143.728 18.212C144.368 19.58 144.668 21.196 144.628 23.06C144.588 25.116 144.212 26.816 143.5 28.16C142.788 29.496 141.82 30.496 140.596 31.16C139.372 31.816 137.968 32.16 136.384 32.192ZM136.456 29.432C137.792 29.432 138.852 28.908 139.636 27.86C140.42 26.812 140.812 25.172 140.812 22.94C140.812 21.772 140.656 20.724 140.344 19.796C140.04 18.868 139.58 18.136 138.964 17.6C138.348 17.056 137.576 16.784 136.648 16.784C135.816 16.784 135.052 16.992 134.356 17.408C133.668 17.824 133.116 18.496 132.7 19.424C132.284 20.352 132.076 21.584 132.076 23.12C132.076 24.296 132.24 25.36 132.568 26.312C132.896 27.264 133.384 28.024 134.032 28.592C134.68 29.152 135.488 29.432 136.456 29.432ZM154.396 32.192C152.684 32.224 151.212 31.86 149.98 31.1C148.748 30.332 147.812 29.252 147.172 27.86C146.532 26.46 146.228 24.832 146.26 22.976C146.3 20.92 146.692 19.236 147.436 17.924C148.18 16.604 149.184 15.624 150.448 14.984C151.712 14.344 153.144 14.008 154.744 13.976C156.384 13.944 157.8 14.3 158.992 15.044C160.192 15.78 161.108 16.836 161.74 18.212C162.38 19.58 162.68 21.196 162.64 23.06C162.6 25.116 162.224 26.816 161.512 28.16C160.8 29.496 159.832 30.496 158.608 31.16C157.384 31.816 155.98 32.16 154.396 32.192ZM154.468 29.432C155.804 29.432 156.864 28.908 157.648 27.86C158.432 26.812 158.824 25.172 158.824 22.94C158.824 21.772 158.668 20.724 158.356 19.796C158.052 18.868 157.592 18.136 156.976 17.6C156.36 17.056 155.588 16.784 154.66 16.784C153.828 16.784 153.064 16.992 152.368 17.408C151.68 17.824 151.128 18.496 150.712 19.424C150.296 20.352 150.088 21.584 150.088 23.12C150.088 24.296 150.252 25.36 150.58 26.312C150.908 27.264 151.396 28.024 152.044 28.592C152.692 29.152 153.5 29.432 154.468 29.432ZM164.297 32L166.265 14.168H171.401L173.981 23.696L174.845 27.716L175.565 23.696L177.953 14.168H182.897L185.081 32H181.421L180.545 22.004L180.257 16.952L179.093 22.088L176.213 32.132H173.237L170.165 22.088L168.941 16.952L168.605 22.004L167.813 32H164.297Z" fill="black"/>
<path d="M199.286 33.938C198.923 33.938 198.617 33.9153 198.368 33.87C198.119 33.8247 198.005 33.7227 198.028 33.564C197.983 33.564 197.915 33.5187 197.824 33.428L197.79 33.36C197.79 33.1787 197.847 33.0313 197.96 32.918L197.994 32.884C198.017 32.8613 198.051 32.85 198.096 32.85C198.255 32.85 198.436 32.8727 198.64 32.918C198.844 32.9633 198.991 32.9747 199.082 32.952C200.057 32.6573 200.941 32.2833 201.734 31.83C202.55 31.3767 203.241 30.9007 203.808 30.402C204.035 30.2207 204.239 30.028 204.42 29.824C204.624 29.62 204.805 29.4273 204.964 29.246C205.009 29.178 205.077 29.1327 205.168 29.11C205.281 29.0647 205.349 29.0307 205.372 29.008L205.406 28.974C205.406 28.9287 205.395 28.8947 205.372 28.872C205.372 28.8267 205.395 28.7587 205.44 28.668C205.893 28.0333 206.12 27.546 206.12 27.206C206.12 27.002 206.063 26.8773 205.95 26.832C205.701 26.6053 205.349 26.424 204.896 26.288C204.465 26.152 204.035 26.0387 203.604 25.948C203.173 25.8347 202.845 25.7327 202.618 25.642C202.21 25.4607 202.006 25.1547 202.006 24.724C202.006 24.2933 202.176 23.806 202.516 23.262C202.879 22.6953 203.377 22.1287 204.012 21.562C205.032 20.7007 206.109 20.0093 207.242 19.488C208.375 18.944 209.373 18.672 210.234 18.672C210.687 18.672 211.084 18.7627 211.424 18.944C211.764 19.1253 212.002 19.42 212.138 19.828C212.206 20.032 212.24 20.2247 212.24 20.406C212.24 20.7007 212.161 20.9613 212.002 21.188C211.866 21.392 211.696 21.494 211.492 21.494C211.447 21.494 211.356 21.5053 211.22 21.528C211.107 21.5507 211.005 21.5507 210.914 21.528C210.823 21.4827 210.733 21.4033 210.642 21.29C210.551 21.1767 210.483 21.12 210.438 21.12H210.404C210.313 21.0747 210.245 21.0293 210.2 20.984C210.177 20.9387 210.109 20.916 209.996 20.916H209.86L209.18 20.882C208.84 20.882 208.455 20.95 208.024 21.086C207.593 21.222 207.083 21.4827 206.494 21.868V21.834C206.29 21.9927 206.075 22.1967 205.848 22.446C205.621 22.6727 205.406 22.9107 205.202 23.16C205.066 23.296 204.907 23.432 204.726 23.568C204.567 23.704 204.465 23.8287 204.42 23.942C204.329 24.1233 204.284 24.282 204.284 24.418C204.284 24.554 204.341 24.6673 204.454 24.758C204.817 24.9167 205.315 25.098 205.95 25.302C206.585 25.4833 207.242 25.8007 207.922 26.254C208.058 26.3447 208.194 26.492 208.33 26.696C208.489 26.8773 208.568 27.1153 208.568 27.41C208.568 27.6367 208.523 27.852 208.432 28.056C208.364 28.1693 208.262 28.3053 208.126 28.464C207.99 28.6 207.899 28.7247 207.854 28.838L207.82 28.872C207.412 29.28 206.891 29.8127 206.256 30.47C205.621 31.1047 204.726 31.7733 203.57 32.476C202.686 33.02 201.859 33.394 201.088 33.598C200.317 33.8247 199.717 33.938 199.286 33.938ZM213.982 32.51C213.914 32.51 213.767 32.4533 213.54 32.34C213.336 32.2493 213.121 32.1473 212.894 32.034C212.69 31.9433 212.532 31.898 212.418 31.898H212.384C212.09 31.898 211.874 31.8073 211.738 31.626C211.625 31.422 211.546 31.184 211.5 30.912C211.455 30.64 211.41 30.4133 211.364 30.232C211.296 29.96 211.262 29.6767 211.262 29.382C211.262 28.362 211.602 27.1833 212.282 25.846C212.985 24.486 213.914 23.1487 215.07 21.834C215.886 20.9047 216.714 20.1793 217.552 19.658C218.391 19.1367 219.15 18.842 219.83 18.774C220.193 18.7287 220.567 18.8193 220.952 19.046C221.338 19.2727 221.61 19.386 221.768 19.386H221.802C222.437 19.386 222.868 19.6013 223.094 20.032C223.321 20.44 223.434 20.8367 223.434 21.222C223.434 21.562 223.355 21.8907 223.196 22.208C223.038 22.4347 222.788 22.548 222.448 22.548C222.018 22.548 221.734 22.4233 221.598 22.174C221.44 21.8113 221.145 21.528 220.714 21.324C220.284 21.12 219.876 21.018 219.49 21.018C219.105 21.018 218.686 21.188 218.232 21.528C217.802 21.868 217.36 22.276 216.906 22.752C215.524 24.18 214.56 25.5173 214.016 26.764C213.495 27.988 213.234 28.9513 213.234 29.654C213.234 29.7447 213.234 29.8353 213.234 29.926C213.257 29.994 213.268 30.062 213.268 30.13V30.164C213.268 30.3227 213.416 30.4927 213.71 30.674C214.005 30.8327 214.334 30.8893 214.696 30.844C215.308 30.776 215.818 30.674 216.226 30.538C216.634 30.402 217.156 30.1527 217.79 29.79C217.813 29.79 217.926 29.7333 218.13 29.62C218.334 29.5067 218.538 29.3933 218.742 29.28C218.969 29.144 219.094 29.076 219.116 29.076C219.366 28.94 219.502 28.872 219.524 28.872C219.57 28.872 219.638 28.8493 219.728 28.804C219.819 28.736 220.057 28.5773 220.442 28.328C220.85 28.056 221.168 27.92 221.394 27.92C221.553 27.92 221.632 27.9767 221.632 28.09C221.632 28.1807 221.553 28.3167 221.394 28.498C221.258 28.6793 221.009 28.8947 220.646 29.144C220.193 29.4387 219.819 29.6653 219.524 29.824C219.252 29.9827 219.003 30.1413 218.776 30.3C218.55 30.436 218.3 30.64 218.028 30.912L217.994 30.946C217.949 30.946 217.824 30.9913 217.62 31.082C217.439 31.1727 217.258 31.2633 217.076 31.354C216.895 31.422 216.793 31.4673 216.77 31.49C216.68 31.558 216.442 31.6827 216.056 31.864C215.694 32.0227 215.308 32.17 214.9 32.306C214.492 32.442 214.186 32.51 213.982 32.51ZM222.922 32C222.718 31.932 222.616 31.694 222.616 31.286C222.616 31.0367 222.65 30.7533 222.718 30.436C222.809 30.1187 222.933 29.7447 223.092 29.314V29.416C223.137 29.416 223.183 29.3367 223.228 29.178C223.273 29.0193 223.285 28.9287 223.262 28.906C223.285 28.77 223.375 28.6227 223.534 28.464C223.715 28.2827 223.795 28.1807 223.772 28.158V28.124C223.817 28.0333 223.817 27.9767 223.772 27.954C223.727 27.9313 223.738 27.8407 223.806 27.682C224.055 27.1607 224.259 26.8093 224.418 26.628C224.577 26.424 224.747 26.1407 224.928 25.778V25.846C224.951 25.846 224.973 25.7553 224.996 25.574C225.041 25.3927 225.098 25.2453 225.166 25.132V25.2C225.189 25.1093 225.234 25.03 225.302 24.962C225.393 24.8713 225.449 24.8147 225.472 24.792C225.676 24.4293 225.812 24.1573 225.88 23.976C225.971 23.7947 226.061 23.6247 226.152 23.466C226.265 23.2847 226.447 23.0353 226.696 22.718H226.662C226.753 22.6047 226.877 22.412 227.036 22.14C227.217 21.868 227.376 21.6413 227.512 21.46C227.671 21.256 227.75 21.1993 227.75 21.29V21.324C227.75 21.392 227.841 21.29 228.022 21.018C228.203 20.746 228.419 20.4173 228.668 20.032C228.917 19.624 229.144 19.2613 229.348 18.944C229.552 18.604 229.677 18.4 229.722 18.332V18.366C229.767 18.298 229.858 18.1507 229.994 17.924C230.153 17.6747 230.243 17.5387 230.266 17.516H230.232C230.459 17.1533 230.606 16.8813 230.674 16.7C230.765 16.496 230.855 16.3033 230.946 16.122C231.059 15.918 231.252 15.646 231.524 15.306L232.714 13.776C232.827 13.6627 232.963 13.47 233.122 13.198C233.303 12.9033 233.485 12.7107 233.666 12.62C233.983 12.4613 234.369 12.314 234.822 12.178C235.298 12.042 235.717 11.974 236.08 11.974C236.329 11.974 236.533 12.0193 236.692 12.11C236.873 12.178 236.975 12.3253 236.998 12.552C236.975 12.892 236.851 13.2887 236.624 13.742C236.397 14.1727 236.057 14.6033 235.604 15.034C235.332 15.2607 235.003 15.4193 234.618 15.51C234.233 15.578 233.961 15.7367 233.802 15.986H233.836C233.587 16.3487 233.269 16.7793 232.884 17.278C232.521 17.754 232.249 18.1167 232.068 18.366C231.887 18.5927 231.683 18.7967 231.456 18.978C231.229 19.1593 231.048 19.3633 230.912 19.59C230.572 20.0433 230.323 20.4287 230.164 20.746C230.005 21.0633 229.847 21.3807 229.688 21.698C229.552 21.9927 229.303 22.3327 228.94 22.718C228.283 23.4207 227.841 23.9987 227.614 24.452C227.387 24.8827 227.251 25.336 227.206 25.812C227.297 25.6987 227.399 25.5967 227.512 25.506C228.011 25.0073 228.702 24.4633 229.586 23.874C230.493 23.2847 231.422 22.7067 232.374 22.14H232.442C232.465 22.14 232.578 22.0833 232.782 21.97C233.009 21.8567 233.247 21.7207 233.496 21.562C233.768 21.3807 233.995 21.2333 234.176 21.12C234.357 20.984 234.414 20.916 234.346 20.916H234.312C234.561 20.7573 234.992 20.576 235.604 20.372C236.624 20.032 237.508 19.862 238.256 19.862C238.755 19.862 239.117 19.9413 239.344 20.1C239.548 20.304 239.65 20.5873 239.65 20.95C239.65 21.222 239.582 21.5507 239.446 21.936V21.868C239.423 21.868 239.378 21.9587 239.31 22.14C239.242 22.2987 239.163 22.4347 239.072 22.548C239.049 22.6387 238.97 22.786 238.834 22.99C238.698 23.1713 238.63 23.262 238.63 23.262V23.228C238.517 23.5 238.403 23.704 238.29 23.84C238.177 23.9533 238.041 24.112 237.882 24.316C237.678 24.588 237.406 24.9847 237.066 25.506C236.749 26.0273 236.431 26.5713 236.114 27.138C235.819 27.7047 235.615 28.2373 235.502 28.736C235.479 28.8947 235.377 29.0987 235.196 29.348C235.037 29.5973 234.969 29.7787 234.992 29.892V29.926C234.992 29.9713 235.037 30.028 235.128 30.096C235.219 30.164 235.275 30.2207 235.298 30.266C235.366 30.3567 235.4 30.47 235.4 30.606C235.4 30.81 235.309 31.014 235.128 31.218C234.947 31.422 234.652 31.524 234.244 31.524C233.949 31.524 233.757 31.456 233.666 31.32C233.598 31.184 233.507 31.0367 233.394 30.878V30.538L233.258 30.572H233.19C233.099 30.572 233.02 30.5153 232.952 30.402V30.368C232.952 30.2773 232.929 30.1527 232.884 29.994C232.861 29.8127 232.85 29.6767 232.85 29.586C232.85 29.4273 232.918 29.1893 233.054 28.872C233.19 28.5547 233.337 28.2373 233.496 27.92C233.655 27.58 233.768 27.3307 233.836 27.172C233.927 26.9 234.153 26.526 234.516 26.05C234.879 25.574 235.264 25.0867 235.672 24.588C236.08 24.0667 236.386 23.636 236.59 23.296C236.703 23.092 236.783 22.9107 236.828 22.752C236.873 22.5707 236.896 22.412 236.896 22.276C236.896 22.0267 236.817 21.8453 236.658 21.732C236.522 21.596 236.341 21.5167 236.114 21.494C236.023 21.494 235.865 21.5167 235.638 21.562C235.434 21.5847 235.219 21.6413 234.992 21.732C234.901 21.7547 234.72 21.8453 234.448 22.004C234.199 22.1627 233.961 22.31 233.734 22.446C233.53 22.582 233.462 22.65 233.53 22.65H233.564C233.383 22.7633 233.213 22.8653 233.054 22.956C232.918 23.024 232.737 23.1373 232.51 23.296C232.442 23.364 232.261 23.4887 231.966 23.67C231.694 23.8513 231.411 24.0327 231.116 24.214C230.844 24.3953 230.651 24.52 230.538 24.588C229.427 25.3813 228.362 26.2427 227.342 27.172C226.322 28.0787 225.449 29.0307 224.724 30.028C224.633 30.1413 224.565 30.3 224.52 30.504C224.475 30.708 224.418 30.878 224.35 31.014C224.259 31.1727 224.169 31.286 224.078 31.354C223.987 31.3993 223.919 31.4447 223.874 31.49C223.693 31.7167 223.511 31.864 223.33 31.932C223.171 31.9773 223.035 32 222.922 32ZM239.955 32C239.751 31.9547 239.649 31.7167 239.649 31.286C239.649 30.538 239.865 29.7333 240.295 28.872C240.431 28.7133 240.545 28.5547 240.635 28.396C240.749 28.2373 240.805 28.056 240.805 27.852C240.805 27.716 240.873 27.512 241.009 27.24C241.145 26.9453 241.293 26.6393 241.451 26.322C241.633 25.982 241.791 25.6873 241.927 25.438C242.063 25.1887 242.131 25.0413 242.131 24.996C242.177 24.8827 242.222 24.758 242.267 24.622C242.335 24.4633 242.369 24.384 242.369 24.384C242.596 24.044 242.868 23.6247 243.185 23.126C243.525 22.6273 243.922 22.0493 244.375 21.392H244.341C244.659 20.8707 244.942 20.4287 245.191 20.066C245.463 19.6807 245.713 19.3747 245.939 19.148C246.665 18.4227 247.492 18.06 248.421 18.06C248.988 18.06 249.271 18.3093 249.271 18.808C249.271 19.2387 249.011 19.6807 248.489 20.134C248.285 20.3153 248.07 20.4967 247.843 20.678C247.639 20.8367 247.447 21.0067 247.265 21.188C247.084 21.392 246.835 21.698 246.517 22.106C246.2 22.4913 245.826 22.9787 245.395 23.568C245.35 23.636 245.225 23.806 245.021 24.078C244.84 24.3273 244.647 24.6107 244.443 24.928C244.262 25.2227 244.126 25.4833 244.035 25.71C243.967 25.914 244.013 26.0047 244.171 25.982C244.489 25.5287 245.271 24.86 246.517 23.976C247.039 23.6133 247.469 23.2507 247.809 22.888C248.149 22.5253 248.489 22.2307 248.829 22.004C248.943 21.9587 249.067 21.8907 249.203 21.8C249.339 21.7093 249.487 21.5847 249.645 21.426H249.679C250.291 21.1087 250.949 20.7573 251.651 20.372C252.354 19.964 253.091 19.5107 253.861 19.012C253.929 18.9667 254.02 18.9667 254.133 19.012C255.153 18.6493 255.856 18.468 256.241 18.468C256.627 18.468 256.819 18.638 256.819 18.978C256.819 19.046 256.785 19.216 256.717 19.488C256.672 19.76 256.57 20.0207 256.411 20.27C256.275 20.5193 256.071 20.644 255.799 20.644H254.303C253.555 20.9387 252.751 21.256 251.889 21.596C251.051 21.9133 250.178 22.4007 249.271 23.058H249.237C245.905 25.2567 243.412 27.58 241.757 30.028C241.735 30.1413 241.689 30.2773 241.621 30.436C241.553 30.5947 241.474 30.7873 241.383 31.014C241.043 31.6033 240.567 31.932 239.955 32ZM261.683 17.516C261.479 17.516 261.343 17.448 261.275 17.312C261.229 17.1533 261.195 17.006 261.173 16.87C261.15 16.7567 261.127 16.632 261.105 16.496C261.082 16.36 261.071 16.224 261.071 16.088C261.071 15.9067 261.093 15.748 261.139 15.612C261.207 15.4533 261.32 15.3287 261.479 15.238C262 14.966 262.442 14.7733 262.805 14.66C263.167 14.5467 263.462 14.49 263.689 14.49C264.029 14.49 264.255 14.592 264.369 14.796C264.482 15 264.539 15.2607 264.539 15.578C264.539 15.6687 264.539 15.7593 264.539 15.85C264.539 15.918 264.527 16.0087 264.505 16.122C264.437 16.4167 264.21 16.6207 263.825 16.734C263.462 16.8473 263.156 16.9607 262.907 17.074C262.748 17.1647 262.555 17.2667 262.329 17.38C262.125 17.4707 261.932 17.516 261.751 17.516H261.683ZM254.271 32.17C254.18 32.17 254.101 32.102 254.033 31.966C253.987 31.7847 253.931 31.626 253.863 31.49C253.795 31.354 253.761 31.15 253.761 30.878C253.761 30.5607 253.829 30.096 253.965 29.484C254.101 28.872 254.361 27.954 254.747 26.73C255.041 25.8007 255.313 25.0527 255.563 24.486C255.812 23.9193 256.073 23.3753 256.345 22.854V22.82C256.413 22.7293 256.515 22.65 256.651 22.582C256.787 22.514 256.877 22.446 256.923 22.378H256.889C256.934 22.3327 256.945 22.2647 256.923 22.174C256.9 22.0607 256.889 21.9587 256.889 21.868C256.889 21.6187 256.968 21.4147 257.127 21.256C257.308 21.0747 257.489 20.9047 257.671 20.746C257.852 20.5647 258.135 20.3607 258.521 20.134C258.906 19.9073 259.359 19.7487 259.881 19.658C259.949 19.6353 260.017 19.624 260.085 19.624C260.153 19.624 260.221 19.624 260.289 19.624C260.674 19.624 260.969 19.7033 261.173 19.862C261.377 20.0207 261.524 20.1907 261.615 20.372C261.66 20.4173 261.705 20.474 261.751 20.542C261.796 20.61 261.819 20.6893 261.819 20.78C261.819 20.8707 261.773 20.9953 261.683 21.154C261.615 21.29 261.456 21.4713 261.207 21.698C261.093 21.834 260.923 21.9813 260.697 22.14C260.493 22.276 260.3 22.4347 260.119 22.616C259.892 22.8427 259.677 23.092 259.473 23.364C259.269 23.636 259.076 23.8967 258.895 24.146C258.736 24.3727 258.566 24.588 258.385 24.792C258.203 24.9733 258.022 25.166 257.841 25.37C257.75 25.4607 257.682 25.6307 257.637 25.88C257.591 26.1067 257.489 26.2993 257.331 26.458C257.172 26.662 256.991 26.8207 256.787 26.934C256.605 27.0473 256.458 27.206 256.345 27.41V27.376C256.231 27.58 256.107 27.818 255.971 28.09C255.835 28.362 255.699 28.6227 255.563 28.872C255.336 29.3253 255.189 29.6653 255.121 29.892C255.053 30.096 255.019 30.2547 255.019 30.368C255.019 30.504 255.041 30.5947 255.087 30.64C255.155 30.6853 255.166 30.7987 255.121 30.98C255.03 31.184 254.905 31.4333 254.747 31.728C254.611 32.0227 254.452 32.17 254.271 32.17ZM266.894 17.516C266.69 17.516 266.554 17.448 266.486 17.312C266.44 17.1533 266.406 17.006 266.384 16.87C266.384 16.7567 266.372 16.632 266.35 16.496C266.327 16.36 266.316 16.224 266.316 16.088C266.316 15.9067 266.338 15.748 266.384 15.612C266.429 15.4533 266.531 15.3287 266.69 15.238C267.664 14.7167 268.401 14.456 268.9 14.456C269.24 14.456 269.466 14.5693 269.58 14.796C269.693 15 269.75 15.2607 269.75 15.578C269.75 15.6687 269.75 15.7593 269.75 15.85C269.75 15.918 269.738 16.0087 269.716 16.122C269.648 16.4167 269.432 16.6207 269.07 16.734C268.707 16.8473 268.401 16.9607 268.152 17.074C267.97 17.1647 267.766 17.2667 267.54 17.38C267.336 17.4707 267.143 17.516 266.962 17.516H266.894ZM251.39 44.716C250.642 44.716 250.052 44.4553 249.622 43.934C249.168 43.4353 248.851 42.8347 248.67 42.132C248.466 41.452 248.364 40.84 248.364 40.296C248.477 39.7747 248.568 39.3553 248.636 39.038C248.681 38.7433 248.885 38.3693 249.248 37.916C249.406 37.7573 249.531 37.678 249.622 37.678C249.735 37.678 249.792 37.7913 249.792 38.018C249.769 38.2447 249.758 38.494 249.758 38.766C249.758 39.106 249.758 39.548 249.758 40.092C249.758 40.636 249.803 41.18 249.894 41.724C249.962 42.2907 250.12 42.7553 250.37 43.118C250.596 43.5033 250.936 43.696 251.39 43.696C252.251 43.696 253.022 43.4693 253.702 43.016C254.359 42.5853 254.96 42.0187 255.504 41.316C256.048 40.636 256.558 39.922 257.034 39.174C257.215 38.902 257.419 38.6527 257.646 38.426C257.872 38.1993 258.065 37.9613 258.224 37.712C258.405 37.44 258.552 37.1567 258.666 36.862C258.756 36.5673 258.881 36.3067 259.04 36.08C259.742 35.1053 260.32 34.0287 260.774 32.85C261.227 31.6713 261.76 30.5153 262.372 29.382C262.349 29.2687 262.338 29.1553 262.338 29.042C262.338 28.9287 262.338 28.8267 262.338 28.736C262.338 27.8747 262.508 27.0473 262.848 26.254C263.188 25.438 263.505 24.6447 263.8 23.874C264.072 23.1713 264.219 22.616 264.242 22.208C264.287 21.7773 264.321 21.4373 264.344 21.188C264.366 20.916 264.491 20.678 264.718 20.474C265.08 20.1793 265.466 20.032 265.874 20.032C266.418 20.032 266.746 20.2133 266.86 20.576C266.882 20.6667 266.894 20.7687 266.894 20.882C266.916 20.9727 266.928 21.0747 266.928 21.188C266.928 21.3693 266.894 21.5507 266.826 21.732C266.712 21.8907 266.656 22.0267 266.656 22.14C266.656 22.1853 266.656 22.2307 266.656 22.276C266.678 22.2987 266.69 22.344 266.69 22.412C266.69 22.48 266.667 22.582 266.622 22.718C266.599 22.8313 266.52 23.0127 266.384 23.262C266.27 23.4887 266.191 23.6587 266.146 23.772C266.123 23.8853 266.055 24.0327 265.942 24.214C265.942 24.3953 265.896 24.7013 265.806 25.132C265.738 25.5627 265.511 26.05 265.126 26.594C264.74 27.138 264.468 27.7047 264.31 28.294C264.174 28.8607 264.038 29.4387 263.902 30.028C263.766 30.5947 263.516 31.1613 263.154 31.728C262.882 32.4987 262.576 33.258 262.236 34.006C261.896 34.7767 261.454 35.536 260.91 36.284C260.388 37.0093 259.81 37.848 259.176 38.8C258.518 39.7747 257.804 40.704 257.034 41.588C256.24 42.4947 255.379 43.2427 254.45 43.832C253.498 44.4213 252.478 44.716 251.39 44.716ZM267.93 32.068C267.839 32.068 267.76 32.0567 267.692 32.034C267.624 32.0113 267.567 32 267.522 32C267.227 31.9547 267.08 31.66 267.08 31.116C267.08 30.912 267.103 30.6853 267.148 30.436C267.216 30.164 267.318 29.8693 267.454 29.552V29.586C267.477 29.4727 267.522 29.382 267.59 29.314C267.658 29.2233 267.681 29.1553 267.658 29.11C267.658 28.9967 267.726 28.7813 267.862 28.464C268.021 28.124 268.1 27.9427 268.1 27.92V27.886C268.145 27.7727 268.236 27.5913 268.372 27.342C268.508 27.07 268.599 26.8887 268.644 26.798C268.825 26.4353 268.961 26.2087 269.052 26.118C269.143 26.0273 269.222 25.9593 269.29 25.914C269.381 25.8687 269.483 25.7327 269.596 25.506L269.63 25.472C269.63 25.472 269.641 25.4607 269.664 25.438C269.687 25.3927 269.709 25.3473 269.732 25.302C269.641 25.3247 269.551 25.3587 269.46 25.404C269.392 25.4267 269.29 25.4607 269.154 25.506H269.12C269.007 25.506 268.848 25.4607 268.644 25.37C268.44 25.2567 268.315 25.1433 268.27 25.03C268.225 24.894 268.202 24.792 268.202 24.724C268.202 24.4293 268.315 24.112 268.542 23.772C268.769 23.4093 268.995 23.1827 269.222 23.092H269.256C269.369 23.092 269.517 23.0467 269.698 22.956C269.879 22.8653 270.038 22.7973 270.174 22.752H270.242C270.31 22.752 270.355 22.718 270.378 22.65C270.401 22.5593 270.491 22.5027 270.65 22.48C270.65 22.48 270.797 22.4233 271.092 22.31C271.409 22.1967 271.681 22.106 271.908 22.038C271.999 21.902 272.089 21.7773 272.18 21.664C272.271 21.5507 272.305 21.4827 272.282 21.46C272.373 21.256 272.486 21.0633 272.622 20.882C272.781 20.678 272.939 20.4853 273.098 20.304H273.064C273.54 19.6013 274.084 18.8647 274.696 18.094C275.308 17.3233 275.999 16.496 276.77 15.612C277.586 14.6827 278.391 14.0027 279.184 13.572C280 13.1187 280.737 12.858 281.394 12.79C281.779 12.79 282.21 12.8807 282.686 13.062C283.162 13.2433 283.502 13.4247 283.706 13.606C284.114 13.9687 284.454 14.3767 284.726 14.83C284.998 15.2833 285.134 15.7027 285.134 16.088C285.134 16.3147 285.089 16.5187 284.998 16.7V16.734C284.907 16.8927 284.76 16.972 284.556 16.972C284.397 16.972 284.25 16.9267 284.114 16.836C284.001 16.7227 283.944 16.5867 283.944 16.428C283.921 16.088 283.751 15.7253 283.434 15.34C283.139 14.9547 282.845 14.7733 282.55 14.796C282.459 14.7733 282.312 14.762 282.108 14.762C281.677 14.762 281.201 14.8867 280.68 15.136C280.181 15.3853 279.626 15.8273 279.014 16.462C278.538 16.9607 278.153 17.3347 277.858 17.584C277.563 17.8107 277.303 17.992 277.076 18.128C276.872 18.2413 276.668 18.366 276.464 18.502C276.283 18.6153 276.056 18.7967 275.784 19.046C275.693 19.2727 275.501 19.6013 275.206 20.032C274.911 20.44 274.594 20.848 274.254 21.256C274.367 21.2107 274.469 21.1767 274.56 21.154C274.673 21.1087 274.787 21.086 274.9 21.086C275.036 21.086 275.263 21.0747 275.58 21.052C275.897 21.0067 276.135 20.984 276.294 20.984V20.916C276.294 20.8027 276.351 20.7347 276.464 20.712H276.43C276.679 20.644 276.929 20.5873 277.178 20.542C277.45 20.474 277.722 20.406 277.994 20.338C278.561 20.2247 279.127 20.0887 279.694 19.93C280.283 19.7713 280.861 19.658 281.428 19.59C281.609 19.59 281.836 19.5447 282.108 19.454C282.38 19.3633 282.618 19.318 282.822 19.318C282.958 19.318 283.071 19.318 283.162 19.318C283.253 19.2953 283.377 19.284 283.536 19.284C283.717 19.284 283.887 19.3293 284.046 19.42C284.205 19.5107 284.295 19.6353 284.318 19.794C284.295 19.9753 284.216 20.066 284.08 20.066C283.967 20.066 283.819 20.066 283.638 20.066C283.547 20.066 283.377 20.0773 283.128 20.1C282.879 20.1227 282.539 20.1793 282.108 20.27C281.791 20.338 281.575 20.3833 281.462 20.406C281.371 20.4287 281.269 20.4513 281.156 20.474C281.065 20.4967 280.85 20.5533 280.51 20.644C279.626 20.848 278.674 21.1427 277.654 21.528C276.657 21.9133 275.523 22.3667 274.254 22.888C273.914 23.024 273.54 23.228 273.132 23.5C272.724 23.7493 272.327 24.01 271.942 24.282C271.738 24.6447 271.568 24.9847 271.432 25.302C271.319 25.5967 271.171 25.8913 270.99 26.186H270.956C270.775 26.4353 270.582 26.7753 270.378 27.206C270.197 27.6367 270.015 28.0787 269.834 28.532C269.675 28.9627 269.551 29.3253 269.46 29.62C269.369 29.9147 269.335 30.0507 269.358 30.028C269.403 30.0053 269.426 30.0167 269.426 30.062C269.449 30.0847 269.437 30.1187 269.392 30.164C269.301 30.2773 269.233 30.436 269.188 30.64C269.143 30.844 269.086 31.014 269.018 31.15C268.927 31.286 268.825 31.4107 268.712 31.524C268.621 31.6147 268.542 31.6827 268.474 31.728C268.383 31.864 268.293 31.9547 268.202 32C268.111 32.0453 268.021 32.068 267.93 32.068ZM280.931 32.238C280.727 32.238 280.591 32.1473 280.523 31.966C280.455 31.7393 280.353 31.5127 280.217 31.286C280.104 31.0367 280.081 30.6967 280.149 30.266C280.149 30.266 280.195 30.1413 280.285 29.892C280.376 29.62 280.467 29.3707 280.557 29.144C280.671 28.8947 280.784 28.634 280.897 28.362C281.011 28.09 281.135 27.7047 281.271 27.206C281.362 26.9793 281.475 26.628 281.611 26.152C281.77 25.676 281.963 25.2453 282.189 24.86V24.894C282.529 24.282 282.881 23.6813 283.243 23.092C283.629 22.48 284.014 21.8793 284.399 21.29C284.286 21.3807 284.127 21.4487 283.923 21.494C283.674 21.5847 283.402 21.6867 283.107 21.8C282.813 21.8907 282.563 21.936 282.359 21.936C282.065 21.936 281.861 21.8227 281.747 21.596C281.657 21.3693 281.611 21.256 281.611 21.256V21.222C281.611 20.9727 281.611 20.712 281.611 20.44C281.634 20.1453 281.815 19.896 282.155 19.692H282.189C282.235 19.692 282.303 19.7033 282.393 19.726C282.507 19.7487 282.575 19.76 282.597 19.76C282.688 19.7147 282.801 19.6467 282.937 19.556C283.073 19.4653 283.221 19.42 283.379 19.42H283.413C283.799 19.42 284.207 19.4087 284.637 19.386C285.068 19.3633 285.431 19.318 285.725 19.25C285.861 19.0687 285.986 18.8987 286.099 18.74C286.213 18.5587 286.258 18.4453 286.235 18.4C286.258 18.2867 286.337 18.128 286.473 17.924C286.632 17.6973 286.745 17.5387 286.813 17.448C286.859 17.3347 286.949 17.21 287.085 17.074C287.244 16.9153 287.323 16.8133 287.323 16.768V16.734C287.346 16.6887 287.357 16.6093 287.357 16.496V16.224C287.357 16.1107 287.369 15.9973 287.391 15.884C287.437 15.748 287.505 15.6347 287.595 15.544C287.754 15.3853 287.879 15.1927 287.969 14.966C288.083 14.7393 288.287 14.5353 288.581 14.354C288.785 14.218 288.978 14.15 289.159 14.15C289.477 14.15 289.715 14.286 289.873 14.558C290.032 14.8073 290.157 15.0113 290.247 15.17C290.27 15.2607 290.383 15.3513 290.587 15.442C290.814 15.51 290.927 15.646 290.927 15.85C290.927 16.0313 290.791 16.2467 290.519 16.496C290.429 16.6093 290.27 16.7907 290.043 17.04C289.817 17.2667 289.613 17.4707 289.431 17.652C289.273 17.8107 288.989 18.1847 288.581 18.774C288.944 18.7513 289.318 18.6947 289.703 18.604C290.089 18.5133 290.485 18.468 290.893 18.468C291.007 18.4907 291.199 18.468 291.471 18.4C291.743 18.3093 291.993 18.264 292.219 18.264C292.31 18.264 292.378 18.332 292.423 18.468C292.491 18.5813 292.537 18.672 292.559 18.74C292.469 18.876 292.276 19.0007 291.981 19.114C291.709 19.2273 291.505 19.2953 291.369 19.318C291.279 19.318 291.041 19.352 290.655 19.42C290.27 19.488 289.873 19.5673 289.465 19.658C289.08 19.726 288.808 19.76 288.649 19.76C288.513 19.7373 288.377 19.8167 288.241 19.998C288.105 20.1567 287.947 20.2473 287.765 20.27C287.629 20.4513 287.482 20.5873 287.323 20.678C287.187 20.746 287.063 20.8593 286.949 21.018C286.655 21.4487 286.405 21.8227 286.201 22.14C285.997 22.4347 285.85 22.6387 285.759 22.752C285.646 22.888 285.487 23.1033 285.283 23.398C285.102 23.67 284.909 23.9533 284.705 24.248C284.501 24.5427 284.331 24.758 284.195 24.894C284.105 25.03 283.957 25.2567 283.753 25.574C283.549 25.8687 283.379 26.084 283.243 26.22C283.13 26.3787 283.039 26.5147 282.971 26.628C282.926 26.7413 282.835 26.9227 282.699 27.172V27.138C282.586 27.342 282.461 27.614 282.325 27.954C282.189 28.2713 282.099 28.5773 282.053 28.872C282.031 28.9853 282.008 29.11 281.985 29.246C281.985 29.382 281.985 29.5067 281.985 29.62C281.985 29.9147 281.997 30.1867 282.019 30.436C282.065 30.6627 282.087 30.8667 282.087 31.048C282.087 31.3653 281.951 31.6487 281.679 31.898C281.43 32.1247 281.181 32.238 280.931 32.238ZM292.593 18.706C292.593 18.706 292.582 18.7173 292.559 18.74L292.593 18.672V18.706Z" fill="black"/>
</svg>
